<?xml version="1.0" standalone="no"?>
<!DOCTYPE svg PUBLIC "-//W3C//DTD SVG 20010904//EN"
 "http://www.w3.org/TR/2001/REC-SVG-20010904/DTD/svg10.dtd">
<svg version="1.0" xmlns="http://www.w3.org/2000/svg"
 width="1024.000000pt" height="1024.000000pt" viewBox="0 0 1024.000000 1024.000000"
 preserveAspectRatio="xMidYMid meet">

<g transform="translate(0.000000,1024.000000) scale(0.100000,-0.100000)"
fill="#000000" stroke="none">
<path d="M0 5120 l0 -5120 5120 0 5120 0 0 5120 0 5120 -5120 0 -5120 0 0
-5120z m5625 3020 c326 -30 769 -160 1079 -316 245 -123 481 -279 653 -431
l72 -64 -69 -85 c-57 -71 -152 -234 -172 -294 -3 -10 -27 6 -84 55 -322 284
-651 452 -1149 588 -224 62 -408 87 -631 87 -273 0 -510 -32 -770 -105 -330
-92 -546 -187 -776 -341 -331 -222 -604 -492 -792 -782 -36 -56 -66 -103 -66
-105 0 -2 -25 -50 -56 -108 -31 -57 -67 -131 -81 -164 -14 -33 -34 -80 -45
-105 -35 -77 -105 -300 -131 -420 -61 -274 -87 -578 -68 -803 49 -581 216
-1028 552 -1477 262 -351 580 -615 979 -814 409 -203 760 -294 1174 -304 266
-6 419 12 681 78 235 59 411 122 580 208 319 162 549 331 793 581 199 204 302
348 425 591 141 279 233 584 273 904 30 242 20 669 -22 947 l-5 37 103 -5
c111 -6 260 18 362 58 66 26 73 18 81 -96 10 -147 7 -702 -5 -810 -6 -55 -15
-145 -20 -200 -10 -121 -25 -218 -46 -299 -87 -344 -272 -759 -463 -1036 -66
-97 -212 -287 -268 -351 -156 -178 -474 -443 -703 -586 -410 -257 -924 -428
-1415 -473 -132 -12 -424 -15 -513 -5 -316 34 -440 57 -632 115 -364 109 -625
230 -910 421 -214 143 -336 243 -521 428 -171 171 -244 258 -378 446 -543 766
-716 1732 -476 2651 120 458 345 887 659 1252 55 64 107 125 116 135 29 36
244 229 339 306 353 285 778 494 1236 610 171 43 380 79 520 90 136 11 425 6
590 -9z m2421 -807 c6 -36 15 -60 27 -67 25 -16 37 7 37 71 l0 53 48 -6 c330
-39 610 -259 732 -576 24 -61 60 -218 60 -259 0 -4 -37 -9 -82 -11 -79 -3 -83
-4 -86 -27 -5 -33 12 -41 97 -41 l74 0 -7 -75 c-24 -261 -173 -513 -386 -650
-112 -72 -298 -135 -399 -135 -29 0 -30 2 -33 52 -2 43 -7 54 -22 56 -27 6
-46 -24 -46 -71 l0 -38 -47 7 c-223 32 -459 186 -601 391 -61 88 -132 272
-147 381 l-7 52 54 0 c65 0 88 12 72 37 -8 13 -26 19 -67 21 -36 2 -57 8 -61
17 -10 26 14 183 40 267 63 197 157 332 313 447 106 78 200 120 331 146 100
20 96 22 106 -42z m-1806 -44 c107 -29 165 -64 250 -149 112 -112 154 -205
220 -490 20 -88 60 -255 160 -665 21 -88 47 -198 58 -245 11 -47 32 -134 46
-195 14 -60 60 -256 101 -435 41 -179 83 -361 94 -405 80 -331 209 -886 228
-985 31 -159 -15 -316 -127 -431 -30 -31 -78 -68 -107 -82 -52 -27 -222 -77
-393 -117 -52 -12 -124 -30 -160 -40 -36 -9 -110 -28 -165 -40 -55 -12 -160
-37 -232 -56 -73 -19 -193 -49 -265 -68 -73 -19 -178 -44 -233 -56 -55 -13
-170 -41 -255 -62 -153 -39 -624 -152 -770 -185 -50 -11 -116 -17 -195 -16
-102 1 -130 5 -185 26 -212 80 -295 178 -369 432 -42 146 -45 151 -81 159 -18
3 -45 6 -61 6 -34 0 -59 23 -59 55 0 43 22 54 117 54 49 0 119 5 157 11 46 7
72 7 80 0 7 -5 18 -36 25 -67 44 -206 105 -331 189 -384 38 -24 102 -40 102
-25 0 18 -33 187 -46 233 -18 66 -13 44 -93 393 -34 146 -91 384 -127 530
-160 652 -230 943 -239 995 -4 22 -25 108 -46 190 -22 83 -55 215 -74 295 -43
176 -43 176 -96 370 -23 85 -46 171 -50 190 -4 19 -21 87 -37 150 -17 63 -35
152 -42 198 -7 45 -15 82 -18 82 -3 0 -25 -17 -50 -37 -28 -23 -54 -57 -70
-91 -23 -52 -24 -61 -18 -168 l7 -113 -58 -17 c-32 -9 -82 -17 -112 -18 -52
-1 -55 0 -64 29 -5 17 -9 80 -10 140 0 131 18 193 89 297 104 153 178 189 564
277 176 40 488 113 560 131 41 11 122 31 180 45 58 14 137 35 175 45 39 11
192 49 340 85 149 36 304 75 345 85 41 11 127 33 190 49 63 16 147 38 185 50
205 62 327 73 445 40z m-2782 -1387 c6 -5 18 -33 26 -63 68 -277 70 -290 60
-307 -14 -22 -74 -42 -146 -49 -66 -7 -65 -8 -94 120 -21 93 -56 163 -86 171
-13 3 -39 6 -59 6 -45 0 -61 18 -57 62 l3 33 137 7 c76 4 145 11 155 17 22 13
44 13 61 3z m147 -542 c8 -13 66 -267 72 -316 3 -28 0 -44 -10 -53 -19 -15
-162 -45 -181 -38 -8 3 -21 32 -30 64 -58 212 -70 233 -140 233 -52 0 -69 16
-64 62 l3 33 123 6 c68 4 126 9 129 13 10 10 91 7 98 -4z m135 -535 c9 -25 16
-51 109 -445 28 -118 55 -231 61 -250 19 -70 23 -145 9 -156 -8 -6 -49 -19
-91 -29 -89 -20 -98 -17 -116 42 -6 21 -49 191 -95 378 l-84 340 -62 5 c-70 6
-83 17 -79 70 l3 35 130 6 c72 4 141 12 155 17 39 16 50 14 60 -13z m243
-1027 c8 -13 22 -61 32 -108 9 -47 21 -98 26 -114 5 -16 9 -46 9 -68 0 -31 -4
-40 -22 -47 -40 -14 -166 -34 -180 -28 -8 3 -20 31 -27 63 -17 79 -43 166 -54
181 -4 6 -31 17 -59 23 -29 6 -58 15 -65 22 -17 13 -17 75 0 81 6 2 53 2 102
0 50 -2 110 0 135 5 72 16 88 14 103 -10z"/>
<path d="M8467 7215 c-28 -41 -34 -65 -17 -65 12 0 52 78 47 93 -2 6 -15 -7
-30 -28z"/>
<path d="M7648 7225 c-8 -8 40 -85 53 -85 5 0 9 7 9 15 0 19 -53 79 -62 70z"/>
<path d="M7949 7126 c-8 -18 -7 -41 4 -92 9 -38 30 -136 46 -219 17 -82 35
-166 41 -185 9 -31 7 -37 -15 -55 -13 -11 -29 -32 -34 -46 -9 -25 -2 -83 14
-109 11 -17 74 -42 93 -36 13 4 35 -30 102 -155 112 -211 155 -279 178 -279
25 0 62 28 62 47 0 16 -221 393 -244 416 -9 9 -12 30 -9 64 l5 52 77 44 c108
63 184 123 274 215 53 55 75 85 71 96 -9 22 -26 20 -87 -10 -49 -25 -235 -154
-342 -237 l-50 -39 -8 43 c-40 225 -92 468 -103 487 -20 30 -61 29 -75 -2z"/>
<path d="M8762 6920 c-31 -19 -43 -40 -23 -40 14 0 67 47 61 54 -3 3 -20 -4
-38 -14z"/>
<path d="M7370 6910 c0 -10 52 -40 70 -40 20 0 9 20 -20 35 -34 17 -50 19 -50
5z"/>
<path d="M7423 6093 c-13 -8 -23 -22 -23 -29 0 -12 5 -12 30 1 17 9 30 22 30
30 0 19 -9 18 -37 -2z"/>
<path d="M8735 6090 c-5 -9 50 -50 68 -50 17 0 5 29 -18 44 -28 18 -41 20 -50
6z"/>
<path d="M7690 5810 c-7 -17 -10 -33 -7 -36 8 -8 47 34 47 51 0 26 -27 16 -40
-15z"/>
<path d="M8450 5833 c0 -14 57 -79 64 -72 10 9 -28 74 -46 77 -10 2 -18 0 -18
-5z"/>
<path d="M6000 7073 c-32 -5 -367 -87 -490 -119 -52 -13 -142 -36 -200 -50
-58 -15 -202 -51 -320 -80 -118 -30 -278 -70 -355 -89 -77 -20 -156 -40 -175
-45 -19 -5 -102 -25 -185 -45 -314 -74 -311 -73 -362 -126 -57 -58 -72 -85
-73 -123 0 -26 2 -28 28 -21 15 4 43 11 62 15 19 4 121 29 225 54 105 26 228
55 275 66 47 10 146 34 220 54 74 19 144 38 155 40 11 3 61 14 110 26 50 12
124 30 165 40 41 10 131 33 200 50 247 61 606 151 665 167 33 9 78 20 100 24
22 4 72 17 110 28 39 11 80 21 93 21 29 0 28 11 -5 42 -52 50 -170 84 -243 71z"/>
<path d="M6304 6512 c-12 -9 -78 -90 -148 -180 -69 -89 -153 -197 -186 -240
-33 -42 -93 -120 -133 -172 -41 -52 -111 -144 -158 -204 -46 -59 -108 -139
-137 -177 -29 -38 -61 -69 -71 -69 -9 0 -55 34 -101 75 -96 85 -129 105 -176
105 -36 0 -61 -27 -90 -95 l-15 -37 58 -57 c105 -101 335 -276 379 -287 30 -8
55 13 123 102 26 34 88 112 139 175 50 63 132 168 182 234 50 66 116 154 147
195 31 41 111 143 178 226 127 157 173 221 192 265 10 23 8 32 -13 63 -22 33
-114 96 -139 96 -5 0 -19 -8 -31 -18z"/>
<path d="M4880 6320 c-58 -15 -136 -34 -175 -44 -38 -9 -92 -23 -120 -31 -146
-41 -214 -59 -355 -94 -85 -21 -189 -46 -231 -55 -108 -25 -106 -23 -90 -98 7
-35 22 -96 33 -135 24 -82 24 -83 117 -59 31 8 135 35 231 60 96 25 261 66
365 91 333 80 359 87 403 102 26 10 42 22 42 32 0 21 -45 197 -59 234 -13 33
-23 33 -161 -3z"/>
<path d="M4510 5706 c-114 -30 -159 -40 -275 -66 -148 -32 -225 -57 -225 -72
0 -16 72 -263 79 -270 3 -4 60 6 126 22 485 117 515 126 515 158 0 19 -31 136
-56 215 -9 26 -21 47 -27 46 -7 0 -68 -15 -137 -33z"/>
<path d="M4355 5130 c-38 -11 -95 -24 -126 -30 -94 -18 -94 -19 -64 -135 15
-55 29 -110 32 -123 3 -13 11 -26 19 -29 20 -7 296 68 318 87 9 9 -40 218 -56
238 -14 16 -39 14 -123 -8z"/>
<path d="M5990 5021 c-146 -38 -310 -78 -365 -91 -55 -13 -149 -36 -210 -52
-145 -39 -434 -111 -510 -128 -138 -31 -636 -158 -642 -164 -13 -13 51 -266
67 -266 4 0 133 32 286 71 286 72 551 139 754 189 63 15 178 45 255 65 224 58
316 81 380 95 33 7 71 16 85 20 14 4 79 20 145 36 66 15 124 31 129 35 9 8 -8
127 -31 207 -14 49 -16 52 -46 51 -18 -1 -151 -31 -297 -68z"/>
<path d="M6700 4720 c-174 -46 -523 -135 -565 -144 -16 -4 -48 -11 -70 -16
-22 -4 -164 -39 -315 -78 -151 -38 -351 -88 -445 -111 -246 -60 -305 -75 -455
-115 -74 -20 -184 -47 -245 -61 -127 -29 -245 -63 -245 -71 0 -16 42 -165 55
-197 8 -20 21 -37 28 -37 13 0 37 6 227 56 52 14 163 43 245 64 83 21 240 62
350 90 110 28 295 76 410 105 116 29 309 79 430 111 121 31 236 60 255 64 19
4 80 19 135 34 55 14 117 26 138 26 43 0 51 -14 63 -99 6 -48 5 -51 -21 -61
-15 -6 -169 -46 -343 -90 -175 -43 -362 -90 -417 -104 -55 -14 -163 -41 -240
-60 -216 -52 -923 -233 -985 -251 -68 -20 -123 -33 -173 -42 -21 -3 -41 -12
-44 -20 -6 -16 13 -126 32 -180 7 -21 19 -39 27 -41 12 -2 91 17 393 98 219
58 310 81 355 90 43 8 186 44 350 88 181 49 279 75 340 89 76 17 141 32 190
43 19 4 136 36 260 69 124 34 253 64 287 68 l63 6 16 -39 c9 -21 17 -58 18
-83 l1 -44 -70 -17 c-38 -10 -95 -23 -125 -30 -30 -7 -111 -27 -180 -45 -69
-18 -170 -43 -225 -55 -55 -13 -140 -33 -190 -46 -283 -75 -565 -148 -595
-154 -19 -4 -141 -35 -270 -68 -129 -33 -307 -77 -395 -97 -88 -21 -168 -42
-178 -47 -19 -10 -19 -18 3 -113 47 -205 65 -273 76 -292 l13 -21 88 23 c79
20 234 57 553 131 58 14 121 29 140 34 58 16 721 179 940 231 47 11 146 36
220 55 74 19 167 41 205 49 200 43 221 50 261 80 43 33 73 95 74 149 0 22 -43
213 -96 425 -52 212 -105 427 -116 476 -41 178 -53 210 -74 211 -10 1 -84 -15
-164 -36z"/>
</g>
</svg>
